# xmcd CD database file
#
# Track frame offsets:
#	150
#	24742
#	48374
#	74571
#	98615
#	121052
#	139790
#	164510
#	189631
#	215806
#	242465
#
# Disc length: 3569 seconds
#
# Revision: 2
# Processed by: cddbd v1.5.1PL2 Copyright (c) Steve Scherf et al.
# Submitted via: CDex 1.51
#
DISCID=9d0def0b
DTITLE=平井堅 - ’95−’05 歌バカ [CD1]
DYEAR=2005
DGENRE=Blues
TTITLE0=Precious Junk
TTITLE1=片方ずつのイヤフォン
TTITLE2=横顔
TTITLE3=ドシャブリ
TTITLE4=Stay With Me
TTITLE5=HEAT UP
TTITLE6=Love Love Love
TTITLE7=楽園
TTITLE8=why
TTITLE9=LOVE OR LUST
TTITLE10=even if
EXTD=YEAR: 2005
EXTT0=
EXTT1=
EXTT2=
EXTT3=
EXTT4=
EXTT5=
EXTT6=
EXTT7=
EXTT8=
EXTT9=
EXTT10=
PLAYORDER=
